<?xml version="1.0" encoding="UTF-8" standalone="no"?>
<svg width="32px" height="32px" viewBox="0 0 32 32" version="1.1" xmlns="http://www.w3.org/2000/svg" xmlns:xlink="http://www.w3.org/1999/xlink">
    <!-- Generator: Sketch 42 (36781) - http://www.bohemiancoding.com/sketch -->
    <title>icon_search</title>
    <desc>Created with Sketch.</desc>
    <defs></defs>
    <g id="切图" stroke="none" stroke-width="1" fill="none" fill-rule="evenodd">
        <g id="Artboard" transform="translate(-148.000000, -48.000000)" fill="#999999">
            <g id="icon_search" transform="translate(148.000000, 48.000000)">
                <path d="M7.5382,13.6258 C7.5382,10.262 10.2984,7.5252 13.691,7.5252 C17.0836,7.5252 19.8438,10.262 19.8438,13.6258 C19.8438,16.9897 17.0836,19.7265 13.691,19.7265 C10.2984,19.7265 7.5382,16.9897 7.5382,13.6258 M25.9347,24.2418 L19.8066,18.245 C20.7946,16.9622 21.382,15.3608 21.382,13.6258 C21.382,9.421 17.9319,6 13.691,6 C9.4501,6 6,9.421 6,13.6258 C6,17.8306 9.45,21.2516 13.691,21.2516 C15.316,21.2516 16.8249,20.7493 18.0681,19.8931 L24.2459,25.9385 C24.3396,26.0302 24.5416,25.9779 24.697,25.8218 L25.8229,24.6905 C25.9783,24.5344 26.0284,24.3335 25.9347,24.2418" id="Fill-1"></path>
            </g>
        </g>
    </g>
</svg>