<?xml version="1.0" encoding="UTF-8" standalone="no"?>
<svg width="14px" height="12px" viewBox="0 0 14 12" version="1.1" xmlns="http://www.w3.org/2000/svg" xmlns:xlink="http://www.w3.org/1999/xlink">
    <!-- Generator: Sketch 42 (36781) - http://www.bohemiancoding.com/sketch -->
    <title>icon_pic</title>
    <desc>Created with Sketch.</desc>
    <defs></defs>
    <g id="切图" stroke="none" stroke-width="1" fill="none" fill-rule="evenodd">
        <g id="Artboard" transform="translate(-228.000000, -255.000000)" fill="#FFFFFF">
            <g id="icon_pic" transform="translate(228.000000, 255.000000)">
                <path d="M10.0408857,4.499136 C10.5221238,4.499136 10.9120286,4.106112 10.9120286,3.621696 C10.9120286,3.13728 10.5221238,2.743584 10.0408857,2.743584 C9.55964762,2.743584 9.16974286,3.13728 9.16974286,3.621696 C9.16974286,4.106016 9.55964762,4.499136 10.0408857,4.499136" id="Fill-1"></path>
                <path d="M13.0968286,11.0999424 L0.873114286,11.0999424 L0.873114286,8.5065024 L4.37711429,5.0834304 L7.9894,8.7210624 C8.13806667,8.9029824 8.40330476,8.8798464 8.5914,8.7369024 L10.1859714,7.2817344 L13.0616857,10.2568704 C13.073019,10.2681984 13.0847333,10.2785664 13.0968286,10.2883584 L13.0968286,11.0999424 Z M0.873114286,0.9760704 L13.0968286,0.9760704 L13.0968286,9.0331584 L10.5315905,6.3864384 C10.3760667,6.2322624 10.1321619,6.2163264 9.95949524,6.3487104 L8.31473333,7.7933184 L4.70044762,4.1888064 C4.62292381,4.0948224 4.51130476,4.0372224 4.39054286,4.0293504 C4.27044762,4.0253184 4.15187619,4.0650624 4.06359048,4.1483904 L0.873114286,7.2777984 L0.873114286,0.9760704 Z M13.0968286,0.0959424 L0.873114286,0.0959424 C0.393209524,0.0959424 -2.85714286e-05,0.4916544 -2.85714286e-05,0.9760704 L-2.85714286e-05,11.0999424 C-2.85714286e-05,11.5836864 0.393209524,11.9800704 0.873114286,11.9800704 L13.0968286,11.9800704 C13.5767333,11.9800704 13.9699714,11.5836864 13.9699714,11.0999424 L13.9699714,0.9760704 C13.9699714,0.4916544 13.5767333,0.0959424 13.0968286,0.0959424 L13.0968286,0.0959424 Z" id="Fill-3"></path>
            </g>
        </g>
    </g>
</svg>