<?xml version="1.0" encoding="UTF-8" standalone="no"?>
<svg width="24px" height="23px" viewBox="0 0 24 23" version="1.1" xmlns="http://www.w3.org/2000/svg" xmlns:xlink="http://www.w3.org/1999/xlink">
    <!-- Generator: Sketch 42 (36781) - http://www.bohemiancoding.com/sketch -->
    <title>icon_scanning</title>
    <desc>Created with Sketch.</desc>
    <defs></defs>
    <g id="切图" stroke="none" stroke-width="1" fill="none" fill-rule="evenodd">
        <g id="Artboard" transform="translate(-44.000000, -56.000000)" fill="#00ABD8">
            <g id="icon_scanning" transform="translate(44.000000, 56.000000)">
                <path d="M1.16046171,7.13558773 L1.16046171,7.13558773 L1.93394743,7.13558773 C2.147616,7.13558773 2.32082743,6.95807853 2.32082743,6.73922577 L2.32082743,1.58567362 L7.34944457,1.58567362 C7.562976,1.58567362 7.73618743,1.40816442 7.73618743,1.18931166 L7.73618743,0.396446626 C7.73618743,0.177452761 7.562976,-5.64417178e-05 7.34944457,-5.64417178e-05 L1.16046171,-5.64417178e-05 C0.946793143,-5.64417178e-05 0.773581714,0.177452761 0.773581714,0.396446626 L0.773581714,1.18931166 L0.773581714,6.73908466 C0.773581714,6.95807853 0.946793143,7.13558773 1.16046171,7.13558773" id="Fill-1"></path>
                <path d="M7.34936229,21.4068902 L2.32088229,21.4068902 L2.32088229,16.253338 C2.32088229,16.0344853 2.14767086,15.8569761 1.93400229,15.8569761 L1.16037943,15.8569761 C0.946710857,15.8569761 0.773636571,16.0344853 0.773636571,16.253338 L0.773636571,22.5962583 C0.773636571,22.815111 0.946710857,22.9926202 1.16037943,22.9926202 L7.34936229,22.9926202 C7.56303086,22.9926202 7.73610514,22.815111 7.73610514,22.5962583 L7.73610514,21.8033933 C7.73610514,21.5843994 7.56303086,21.4068902 7.34936229,21.4068902" id="Fill-4"></path>
                <path d="M16.632864,1.58573006 L16.632864,1.58573006 L21.6614811,1.58573006 L21.6614811,6.7391411 C21.6614811,6.95813497 21.8345554,7.13564417 22.048224,7.13564417 L22.8218469,7.13564417 C23.0355154,7.13564417 23.2087269,6.95813497 23.2087269,6.7391411 L23.2087269,1.18922699 L23.2087269,0.396361963 C23.2087269,0.177509202 23.0355154,0 22.8218469,0 L16.632864,0 C16.4191954,0 16.2461211,0.177509202 16.2461211,0.396361963 L16.2461211,1.18922699 C16.2461211,1.40822086 16.4191954,1.58573006 16.632864,1.58573006" id="Fill-6"></path>
                <path d="M22.8218057,15.8569761 L22.0481829,15.8569761 C21.8345143,15.8569761 21.6613029,16.0344853 21.6613029,16.253338 L21.6613029,21.4068902 L16.6328229,21.4068902 C16.4191543,21.4068902 16.24608,21.5843994 16.24608,21.8033933 L16.24608,22.5962583 C16.24608,22.815111 16.4191543,22.9926202 16.6328229,22.9926202 L22.8218057,22.9926202 C23.0354743,22.9926202 23.2085486,22.815111 23.2085486,22.5962583 L23.2085486,16.253338 C23.2085486,16.0344853 23.0354743,15.8569761 22.8218057,15.8569761" id="Fill-8"></path>
                <path d="M23.5954011,10.703438 L0.386852571,10.703438 C0.173184,10.703438 -2.74285715e-05,10.8809472 -2.74285715e-05,11.0999411 L-2.74285715e-05,11.892665 C-2.74285715e-05,12.1116589 0.173184,12.2891681 0.386852571,12.2891681 L23.5954011,12.2891681 C23.8090697,12.2891681 23.9822811,12.1116589 23.9822811,11.892665 L23.9822811,11.0999411 C23.9822811,10.8809472 23.8090697,10.703438 23.5954011,10.703438" id="Fill-10"></path>
            </g>
        </g>
    </g>
</svg>