<?xml version="1.0" encoding="UTF-8" standalone="no"?>
<svg width="14px" height="11px" viewBox="0 0 14 11" version="1.1" xmlns="http://www.w3.org/2000/svg" xmlns:xlink="http://www.w3.org/1999/xlink">
    <!-- Generator: Sketch 42 (36781) - http://www.bohemiancoding.com/sketch -->
    <title>icon_photo</title>
    <desc>Created with Sketch.</desc>
    <defs></defs>
    <g id="切图" stroke="none" stroke-width="1" fill="none" fill-rule="evenodd">
        <g id="Artboard" transform="translate(-200.000000, -256.000000)" fill="#FFFFFF">
            <g id="icon_photo" transform="translate(200.000000, 256.000000)">
                <path d="M13.2075932,9.814695 C13.2075932,9.977825 12.9278517,10.20569 12.7973833,10.214875 L1.14132093,10.214875 C1.04014137,10.207285 0.792684135,10.021055 0.792684135,9.80188 L0.792684135,2.75539 C0.792684135,2.49403 1.16484074,2.36203 1.23007493,2.35521 L3.82047127,2.35521 L4.77979103,0.78518 L9.21621504,0.78518 L10.1800834,2.35521 L12.7702024,2.35521 C13.078678,2.35521 13.2033774,2.73548 13.2075932,2.768205 L13.2075932,9.814695 Z M12.6874948,1.570085 L10.6750534,1.570085 L9.732375,0 L4.25126098,0 L3.32494661,1.570085 L1.3125052,1.570085 C0.875058938,1.570085 0,1.98308 0,2.796255 L0,9.761015 C0,10.44505 0.656391278,11 1.22136594,11 L12.7149531,11 C13.2891914,11 14,10.419145 14,9.77383 L14,2.80907 C14,2.396075 13.5626092,1.570085 12.6874948,1.570085 L12.6874948,1.570085 Z" id="Fill-1"></path>
                <path d="M7.23014229,7.98787 C5.99332806,7.98787 4.99047431,6.99138 4.99047431,5.7618 C4.99047431,4.53244 5.99332806,3.535675 7.23014229,3.535675 C8.46695652,3.535675 9.46981028,4.53244 9.46981028,5.7618 C9.46981028,6.99138 8.46695652,7.98787 7.23014229,7.98787 M7.23014229,2.75 C5.55672727,2.75 4.2,4.09849 4.2,5.7618 C4.2,7.42533 5.55672727,8.773545 7.23014229,8.773545 C8.90355731,8.773545 10.2602846,7.42533 10.2602846,5.7618 C10.2602846,4.09849 8.90355731,2.75 7.23014229,2.75" id="Fill-4"></path>
            </g>
        </g>
    </g>
</svg>